<?xml version="1.0" encoding="iso-8859-1"?>
<!-- Uploaded to: SVG Repo, www.svgrepo.com, Generator: SVG Repo Mixer Tools -->
<!DOCTYPE svg PUBLIC "-//W3C//DTD SVG 1.1//EN" "http://www.w3.org/Graphics/SVG/1.1/DTD/svg11.dtd">
<svg fill="#000000" height="800px" width="800px" version="1.1" id="Capa_1" xmlns="http://www.w3.org/2000/svg" xmlns:xlink="http://www.w3.org/1999/xlink" 
	 viewBox="0 0 438.87 438.87" xml:space="preserve">
<g>
	<path d="M357.954,222.098c1.407-1.406,2.197-3.314,2.197-5.303s-0.79-3.897-2.197-5.303l-99.32-99.32l21.228-21.228
		c3.242,1.595,6.773,2.413,10.312,2.413c5.976,0,11.955-2.276,16.504-6.825c4.409-4.409,6.836-10.27,6.836-16.505
		s-2.428-12.096-6.836-16.505v0c-9.101-9.1-23.909-9.1-33.009,0c-4.409,4.409-6.837,10.27-6.837,16.505
		c0,3.644,0.835,7.157,2.404,10.33l-21.209,21.209L148.659,2.197C147.253,0.79,145.345,0,143.356,0s-3.897,0.79-5.303,2.197
		c-60.626,60.627-60.626,159.274,0,219.901c0.617,0.617,1.244,1.217,1.868,1.822l-27.617,161.504H86.219c-4.142,0-7.5,3.358-7.5,7.5
		v38.446c0,4.142,3.358,7.5,7.5,7.5h196.297c4.142,0,7.5-3.358,7.5-7.5v-38.446c0-4.142-3.358-7.5-7.5-7.5h-26.085l-20.234-118.307
		c3.93,0.297,7.868,0.451,11.807,0.451C287.823,267.568,327.641,252.412,357.954,222.098z M284.276,64.128
		c1.626-1.626,3.762-2.439,5.898-2.439c2.136,0,4.272,0.813,5.898,2.439c1.576,1.576,2.443,3.67,2.443,5.898
		s-0.867,4.322-2.443,5.898c-3.251,3.252-8.544,3.252-11.796,0c-1.576-1.575-2.443-3.669-2.443-5.897S282.7,65.704,284.276,64.128z
		 M143.496,18.247l198.409,198.409c-26.623,23.95-60.255,35.923-93.901,35.92c-35.973-0.003-71.958-13.698-99.344-41.083
		C95.66,158.492,93.939,73.334,143.496,18.247z M275.016,423.87H93.719v-23.446h181.297V423.87z M241.213,385.424H127.522
		l25.656-150.034c20.225,15.585,43.437,25.501,67.466,29.762L241.213,385.424z"/>
	<path d="M274.807,185.436c1.464,1.464,3.384,2.197,5.303,2.197s3.839-0.732,5.303-2.197c2.929-2.929,2.929-7.678,0-10.606
		L166.919,56.335c-2.929-2.929-7.678-2.929-10.606,0c-2.929,2.929-2.929,7.678,0,10.606L274.807,185.436z"/>
	<path d="M153.368,45.894c0-3.234-2.146-6.149-5.213-7.138c-2.946-0.949-6.315,0.07-8.21,2.528
		c-4.104,5.325,0.649,13.263,7.311,11.974C150.745,52.584,153.368,49.462,153.368,45.894z"/>
</g>
</svg>