<svg width="100%" height="100%" viewBox="0 0 1440 320" xmlns="http://www.w3.org/2000/svg">
    <path fill="#333" fill-opacity="0.5" d="M0,128L30,133.3C60,139,120,149,180,160C240,171,300,181,360,160C420,139,480,85,540,64C600,43,660,53,720,85.3C780,117,840,171,900,181.3C960,192,1020,128,1080,117.3C1140,107,1200,149,1260,165.3C1320,181,1380,171,1410,165.3L1440,160L1440,320L1410,320C1380,320,1320,320,1260,320C1200,320,1140,320,1080,320C1020,320,960,320,900,320C840,320,780,320,720,320C660,320,600,320,540,320C480,320,420,320,360,320C300,320,240,320,180,320C120,320,60,320,30,320L0,320Z"></path>
</svg>
